<mxfile host="app.diagrams.net" agent="Mozilla/5.0 (X11; Ubuntu; Linux x86_64; rv:141.0) Gecko/20100101 Firefox/141.0" version="28.0.7">
  <diagram name="Page-1" id="qw88CQKuZXqtZOb2cxXl">
    <mxGraphModel dx="679" dy="380" grid="1" gridSize="10" guides="1" tooltips="1" connect="1" arrows="1" fold="1" page="1" pageScale="1" pageWidth="850" pageHeight="1100" math="0" shadow="0">
      <root>
        <mxCell id="0" />
        <mxCell id="1" parent="0" />
        <mxCell id="tA62HaFHwLlN5aknCPf0-23" value="" style="endArrow=none;dashed=1;html=1;dashPattern=8 8;strokeWidth=2;rounded=0;strokeColor=#808080;exitX=0.75;exitY=0;exitDx=0;exitDy=0;exitPerimeter=0;" edge="1" parent="1" source="tA62HaFHwLlN5aknCPf0-50">
          <mxGeometry width="50" height="50" relative="1" as="geometry">
            <mxPoint x="520" y="250" as="sourcePoint" />
            <mxPoint x="520" y="120" as="targetPoint" />
          </mxGeometry>
        </mxCell>
        <mxCell id="tA62HaFHwLlN5aknCPf0-22" value="" style="endArrow=none;dashed=1;html=1;dashPattern=8 8;strokeWidth=2;rounded=0;strokeColor=#808080;exitX=0.5;exitY=0;exitDx=0;exitDy=0;exitPerimeter=0;" edge="1" parent="1" source="tA62HaFHwLlN5aknCPf0-50">
          <mxGeometry width="50" height="50" relative="1" as="geometry">
            <mxPoint x="399.65999999999997" y="250" as="sourcePoint" />
            <mxPoint x="400" y="120" as="targetPoint" />
          </mxGeometry>
        </mxCell>
        <mxCell id="tA62HaFHwLlN5aknCPf0-21" value="" style="endArrow=none;dashed=1;html=1;dashPattern=8 8;strokeWidth=2;rounded=0;strokeColor=#808080;exitX=0.25;exitY=0;exitDx=0;exitDy=0;exitPerimeter=0;" edge="1" parent="1" source="tA62HaFHwLlN5aknCPf0-50">
          <mxGeometry width="50" height="50" relative="1" as="geometry">
            <mxPoint x="280" y="250" as="sourcePoint" />
            <mxPoint x="280" y="120" as="targetPoint" />
          </mxGeometry>
        </mxCell>
        <mxCell id="tA62HaFHwLlN5aknCPf0-1" value="" style="endArrow=classic;html=1;rounded=0;" edge="1" parent="1">
          <mxGeometry width="50" height="50" relative="1" as="geometry">
            <mxPoint x="160" y="150" as="sourcePoint" />
            <mxPoint x="640" y="150" as="targetPoint" />
          </mxGeometry>
        </mxCell>
        <mxCell id="tA62HaFHwLlN5aknCPf0-2" value="" style="endArrow=classic;html=1;rounded=0;" edge="1" parent="1">
          <mxGeometry width="50" height="50" relative="1" as="geometry">
            <mxPoint x="160" y="190" as="sourcePoint" />
            <mxPoint x="640" y="190" as="targetPoint" />
          </mxGeometry>
        </mxCell>
        <mxCell id="tA62HaFHwLlN5aknCPf0-3" value="" style="endArrow=classic;html=1;rounded=0;" edge="1" parent="1">
          <mxGeometry width="50" height="50" relative="1" as="geometry">
            <mxPoint x="160" y="230" as="sourcePoint" />
            <mxPoint x="640" y="230" as="targetPoint" />
          </mxGeometry>
        </mxCell>
        <mxCell id="tA62HaFHwLlN5aknCPf0-4" value="" style="shape=table;startSize=0;container=1;collapsible=0;childLayout=tableLayout;" vertex="1" parent="1">
          <mxGeometry x="160" y="250" width="480" height="50" as="geometry" />
        </mxCell>
        <mxCell id="tA62HaFHwLlN5aknCPf0-5" value="" style="shape=tableRow;horizontal=0;startSize=0;swimlaneHead=0;swimlaneBody=0;strokeColor=inherit;top=0;left=0;bottom=0;right=0;collapsible=0;dropTarget=0;fillColor=none;points=[[0,0.5],[1,0.5]];portConstraint=eastwest;" vertex="1" parent="tA62HaFHwLlN5aknCPf0-4">
          <mxGeometry width="480" height="18" as="geometry" />
        </mxCell>
        <mxCell id="tA62HaFHwLlN5aknCPf0-6" value="4" style="shape=partialRectangle;html=1;whiteSpace=wrap;connectable=0;strokeColor=inherit;overflow=hidden;fillColor=none;top=0;left=0;bottom=0;right=0;pointerEvents=1;" vertex="1" parent="tA62HaFHwLlN5aknCPf0-5">
          <mxGeometry width="120" height="18" as="geometry">
            <mxRectangle width="120" height="18" as="alternateBounds" />
          </mxGeometry>
        </mxCell>
        <mxCell id="tA62HaFHwLlN5aknCPf0-7" value="1" style="shape=partialRectangle;html=1;whiteSpace=wrap;connectable=0;strokeColor=inherit;overflow=hidden;fillColor=none;top=0;left=0;bottom=0;right=0;pointerEvents=1;" vertex="1" parent="tA62HaFHwLlN5aknCPf0-5">
          <mxGeometry x="120" width="120" height="18" as="geometry">
            <mxRectangle width="120" height="18" as="alternateBounds" />
          </mxGeometry>
        </mxCell>
        <mxCell id="tA62HaFHwLlN5aknCPf0-8" value="2" style="shape=partialRectangle;html=1;whiteSpace=wrap;connectable=0;strokeColor=inherit;overflow=hidden;fillColor=none;top=0;left=0;bottom=0;right=0;pointerEvents=1;" vertex="1" parent="tA62HaFHwLlN5aknCPf0-5">
          <mxGeometry x="240" width="120" height="18" as="geometry">
            <mxRectangle width="120" height="18" as="alternateBounds" />
          </mxGeometry>
        </mxCell>
        <mxCell id="tA62HaFHwLlN5aknCPf0-9" value="0" style="shape=partialRectangle;html=1;whiteSpace=wrap;connectable=0;strokeColor=inherit;overflow=hidden;fillColor=none;top=0;left=0;bottom=0;right=0;pointerEvents=1;" vertex="1" parent="tA62HaFHwLlN5aknCPf0-5">
          <mxGeometry x="360" width="120" height="18" as="geometry">
            <mxRectangle width="120" height="18" as="alternateBounds" />
          </mxGeometry>
        </mxCell>
        <mxCell id="tA62HaFHwLlN5aknCPf0-10" value="" style="shape=tableRow;horizontal=0;startSize=0;swimlaneHead=0;swimlaneBody=0;strokeColor=inherit;top=0;left=0;bottom=0;right=0;collapsible=0;dropTarget=0;fillColor=none;points=[[0,0.5],[1,0.5]];portConstraint=eastwest;" vertex="1" parent="tA62HaFHwLlN5aknCPf0-4">
          <mxGeometry y="18" width="480" height="16" as="geometry" />
        </mxCell>
        <mxCell id="tA62HaFHwLlN5aknCPf0-11" value="2" style="shape=partialRectangle;html=1;whiteSpace=wrap;connectable=0;strokeColor=inherit;overflow=hidden;fillColor=none;top=0;left=0;bottom=0;right=0;pointerEvents=1;" vertex="1" parent="tA62HaFHwLlN5aknCPf0-10">
          <mxGeometry width="120" height="16" as="geometry">
            <mxRectangle width="120" height="16" as="alternateBounds" />
          </mxGeometry>
        </mxCell>
        <mxCell id="tA62HaFHwLlN5aknCPf0-12" value="0" style="shape=partialRectangle;html=1;whiteSpace=wrap;connectable=0;strokeColor=inherit;overflow=hidden;fillColor=none;top=0;left=0;bottom=0;right=0;pointerEvents=1;" vertex="1" parent="tA62HaFHwLlN5aknCPf0-10">
          <mxGeometry x="120" width="120" height="16" as="geometry">
            <mxRectangle width="120" height="16" as="alternateBounds" />
          </mxGeometry>
        </mxCell>
        <mxCell id="tA62HaFHwLlN5aknCPf0-13" value="3" style="shape=partialRectangle;html=1;whiteSpace=wrap;connectable=0;strokeColor=inherit;overflow=hidden;fillColor=none;top=0;left=0;bottom=0;right=0;pointerEvents=1;" vertex="1" parent="tA62HaFHwLlN5aknCPf0-10">
          <mxGeometry x="240" width="120" height="16" as="geometry">
            <mxRectangle width="120" height="16" as="alternateBounds" />
          </mxGeometry>
        </mxCell>
        <mxCell id="tA62HaFHwLlN5aknCPf0-14" value="1" style="shape=partialRectangle;html=1;whiteSpace=wrap;connectable=0;strokeColor=inherit;overflow=hidden;fillColor=none;top=0;left=0;bottom=0;right=0;pointerEvents=1;" vertex="1" parent="tA62HaFHwLlN5aknCPf0-10">
          <mxGeometry x="360" width="120" height="16" as="geometry">
            <mxRectangle width="120" height="16" as="alternateBounds" />
          </mxGeometry>
        </mxCell>
        <mxCell id="tA62HaFHwLlN5aknCPf0-15" value="" style="shape=tableRow;horizontal=0;startSize=0;swimlaneHead=0;swimlaneBody=0;strokeColor=inherit;top=0;left=0;bottom=0;right=0;collapsible=0;dropTarget=0;fillColor=none;points=[[0,0.5],[1,0.5]];portConstraint=eastwest;" vertex="1" parent="tA62HaFHwLlN5aknCPf0-4">
          <mxGeometry y="34" width="480" height="16" as="geometry" />
        </mxCell>
        <mxCell id="tA62HaFHwLlN5aknCPf0-16" value="1" style="shape=partialRectangle;html=1;whiteSpace=wrap;connectable=0;strokeColor=inherit;overflow=hidden;fillColor=none;top=0;left=0;bottom=0;right=0;pointerEvents=1;" vertex="1" parent="tA62HaFHwLlN5aknCPf0-15">
          <mxGeometry width="120" height="16" as="geometry">
            <mxRectangle width="120" height="16" as="alternateBounds" />
          </mxGeometry>
        </mxCell>
        <mxCell id="tA62HaFHwLlN5aknCPf0-17" value="4" style="shape=partialRectangle;html=1;whiteSpace=wrap;connectable=0;strokeColor=inherit;overflow=hidden;fillColor=none;top=0;left=0;bottom=0;right=0;pointerEvents=1;" vertex="1" parent="tA62HaFHwLlN5aknCPf0-15">
          <mxGeometry x="120" width="120" height="16" as="geometry">
            <mxRectangle width="120" height="16" as="alternateBounds" />
          </mxGeometry>
        </mxCell>
        <mxCell id="tA62HaFHwLlN5aknCPf0-18" value="0" style="shape=partialRectangle;html=1;whiteSpace=wrap;connectable=0;strokeColor=inherit;overflow=hidden;fillColor=none;top=0;left=0;bottom=0;right=0;pointerEvents=1;" vertex="1" parent="tA62HaFHwLlN5aknCPf0-15">
          <mxGeometry x="240" width="120" height="16" as="geometry">
            <mxRectangle width="120" height="16" as="alternateBounds" />
          </mxGeometry>
        </mxCell>
        <mxCell id="tA62HaFHwLlN5aknCPf0-19" value="4" style="shape=partialRectangle;html=1;whiteSpace=wrap;connectable=0;strokeColor=inherit;overflow=hidden;fillColor=none;top=0;left=0;bottom=0;right=0;pointerEvents=1;" vertex="1" parent="tA62HaFHwLlN5aknCPf0-15">
          <mxGeometry x="360" width="120" height="16" as="geometry">
            <mxRectangle width="120" height="16" as="alternateBounds" />
          </mxGeometry>
        </mxCell>
        <mxCell id="tA62HaFHwLlN5aknCPf0-20" value="" style="endArrow=none;html=1;rounded=0;" edge="1" parent="1">
          <mxGeometry width="50" height="50" relative="1" as="geometry">
            <mxPoint x="170" y="150" as="sourcePoint" />
            <mxPoint x="170" y="120" as="targetPoint" />
          </mxGeometry>
        </mxCell>
        <mxCell id="tA62HaFHwLlN5aknCPf0-24" value="" style="endArrow=none;html=1;rounded=0;" edge="1" parent="1">
          <mxGeometry width="50" height="50" relative="1" as="geometry">
            <mxPoint x="190" y="150" as="sourcePoint" />
            <mxPoint x="190" y="120" as="targetPoint" />
          </mxGeometry>
        </mxCell>
        <mxCell id="tA62HaFHwLlN5aknCPf0-25" value="" style="endArrow=none;html=1;rounded=0;" edge="1" parent="1">
          <mxGeometry width="50" height="50" relative="1" as="geometry">
            <mxPoint x="220" y="150" as="sourcePoint" />
            <mxPoint x="220" y="120" as="targetPoint" />
          </mxGeometry>
        </mxCell>
        <mxCell id="tA62HaFHwLlN5aknCPf0-26" value="" style="endArrow=none;html=1;rounded=0;" edge="1" parent="1">
          <mxGeometry width="50" height="50" relative="1" as="geometry">
            <mxPoint x="260" y="150" as="sourcePoint" />
            <mxPoint x="260" y="120" as="targetPoint" />
          </mxGeometry>
        </mxCell>
        <mxCell id="tA62HaFHwLlN5aknCPf0-27" value="" style="endArrow=none;html=1;rounded=0;" edge="1" parent="1">
          <mxGeometry width="50" height="50" relative="1" as="geometry">
            <mxPoint x="330" y="150" as="sourcePoint" />
            <mxPoint x="330" y="120" as="targetPoint" />
          </mxGeometry>
        </mxCell>
        <mxCell id="tA62HaFHwLlN5aknCPf0-28" value="" style="endArrow=none;html=1;rounded=0;" edge="1" parent="1">
          <mxGeometry width="50" height="50" relative="1" as="geometry">
            <mxPoint x="430" y="150" as="sourcePoint" />
            <mxPoint x="430" y="120" as="targetPoint" />
          </mxGeometry>
        </mxCell>
        <mxCell id="tA62HaFHwLlN5aknCPf0-29" value="" style="endArrow=none;html=1;rounded=0;" edge="1" parent="1">
          <mxGeometry width="50" height="50" relative="1" as="geometry">
            <mxPoint x="490" y="150" as="sourcePoint" />
            <mxPoint x="490" y="120" as="targetPoint" />
          </mxGeometry>
        </mxCell>
        <mxCell id="tA62HaFHwLlN5aknCPf0-30" value="" style="endArrow=none;html=1;rounded=0;" edge="1" parent="1">
          <mxGeometry width="50" height="50" relative="1" as="geometry">
            <mxPoint x="190" y="190" as="sourcePoint" />
            <mxPoint x="190" y="160" as="targetPoint" />
          </mxGeometry>
        </mxCell>
        <mxCell id="tA62HaFHwLlN5aknCPf0-31" value="" style="endArrow=none;html=1;rounded=0;" edge="1" parent="1">
          <mxGeometry width="50" height="50" relative="1" as="geometry">
            <mxPoint x="240" y="190" as="sourcePoint" />
            <mxPoint x="240" y="160" as="targetPoint" />
          </mxGeometry>
        </mxCell>
        <mxCell id="tA62HaFHwLlN5aknCPf0-34" value="" style="endArrow=none;html=1;rounded=0;" edge="1" parent="1">
          <mxGeometry width="50" height="50" relative="1" as="geometry">
            <mxPoint x="410" y="190" as="sourcePoint" />
            <mxPoint x="410" y="160" as="targetPoint" />
          </mxGeometry>
        </mxCell>
        <mxCell id="tA62HaFHwLlN5aknCPf0-35" value="" style="endArrow=none;html=1;rounded=0;" edge="1" parent="1">
          <mxGeometry width="50" height="50" relative="1" as="geometry">
            <mxPoint x="430" y="190" as="sourcePoint" />
            <mxPoint x="430" y="160" as="targetPoint" />
          </mxGeometry>
        </mxCell>
        <mxCell id="tA62HaFHwLlN5aknCPf0-36" value="" style="endArrow=none;html=1;rounded=0;fontStyle=1" edge="1" parent="1">
          <mxGeometry width="50" height="50" relative="1" as="geometry">
            <mxPoint x="460" y="190" as="sourcePoint" />
            <mxPoint x="460" y="160" as="targetPoint" />
          </mxGeometry>
        </mxCell>
        <mxCell id="tA62HaFHwLlN5aknCPf0-37" value="" style="endArrow=none;html=1;rounded=0;" edge="1" parent="1">
          <mxGeometry width="50" height="50" relative="1" as="geometry">
            <mxPoint x="560" y="190" as="sourcePoint" />
            <mxPoint x="560" y="160" as="targetPoint" />
          </mxGeometry>
        </mxCell>
        <mxCell id="tA62HaFHwLlN5aknCPf0-38" value="" style="endArrow=none;html=1;rounded=0;" edge="1" parent="1">
          <mxGeometry width="50" height="50" relative="1" as="geometry">
            <mxPoint x="170" y="230" as="sourcePoint" />
            <mxPoint x="170" y="200" as="targetPoint" />
          </mxGeometry>
        </mxCell>
        <mxCell id="tA62HaFHwLlN5aknCPf0-39" value="" style="endArrow=none;html=1;rounded=0;" edge="1" parent="1">
          <mxGeometry width="50" height="50" relative="1" as="geometry">
            <mxPoint x="300" y="230" as="sourcePoint" />
            <mxPoint x="300" y="200" as="targetPoint" />
          </mxGeometry>
        </mxCell>
        <mxCell id="tA62HaFHwLlN5aknCPf0-40" value="" style="endArrow=none;html=1;rounded=0;" edge="1" parent="1">
          <mxGeometry width="50" height="50" relative="1" as="geometry">
            <mxPoint x="310" y="230" as="sourcePoint" />
            <mxPoint x="310" y="200" as="targetPoint" />
          </mxGeometry>
        </mxCell>
        <mxCell id="tA62HaFHwLlN5aknCPf0-41" value="" style="endArrow=none;html=1;rounded=0;" edge="1" parent="1">
          <mxGeometry width="50" height="50" relative="1" as="geometry">
            <mxPoint x="320" y="230" as="sourcePoint" />
            <mxPoint x="320" y="200" as="targetPoint" />
          </mxGeometry>
        </mxCell>
        <mxCell id="tA62HaFHwLlN5aknCPf0-42" value="" style="endArrow=none;html=1;rounded=0;fontStyle=1" edge="1" parent="1">
          <mxGeometry width="50" height="50" relative="1" as="geometry">
            <mxPoint x="340" y="230" as="sourcePoint" />
            <mxPoint x="340" y="200" as="targetPoint" />
          </mxGeometry>
        </mxCell>
        <mxCell id="tA62HaFHwLlN5aknCPf0-45" value="" style="endArrow=none;html=1;rounded=0;" edge="1" parent="1">
          <mxGeometry width="50" height="50" relative="1" as="geometry">
            <mxPoint x="540" y="230" as="sourcePoint" />
            <mxPoint x="540" y="200" as="targetPoint" />
          </mxGeometry>
        </mxCell>
        <mxCell id="tA62HaFHwLlN5aknCPf0-46" value="" style="endArrow=none;html=1;rounded=0;" edge="1" parent="1">
          <mxGeometry width="50" height="50" relative="1" as="geometry">
            <mxPoint x="550" y="230" as="sourcePoint" />
            <mxPoint x="550" y="200" as="targetPoint" />
          </mxGeometry>
        </mxCell>
        <mxCell id="tA62HaFHwLlN5aknCPf0-47" value="" style="endArrow=none;html=1;rounded=0;" edge="1" parent="1">
          <mxGeometry width="50" height="50" relative="1" as="geometry">
            <mxPoint x="610" y="230" as="sourcePoint" />
            <mxPoint x="610" y="200" as="targetPoint" />
          </mxGeometry>
        </mxCell>
        <mxCell id="tA62HaFHwLlN5aknCPf0-48" value="" style="endArrow=none;html=1;rounded=0;" edge="1" parent="1">
          <mxGeometry width="50" height="50" relative="1" as="geometry">
            <mxPoint x="590" y="230" as="sourcePoint" />
            <mxPoint x="590" y="200" as="targetPoint" />
          </mxGeometry>
        </mxCell>
        <mxCell id="tA62HaFHwLlN5aknCPf0-49" value="" style="shape=table;startSize=0;container=1;collapsible=0;childLayout=tableLayout;" vertex="1" parent="1">
          <mxGeometry x="160" y="320" width="480" height="50" as="geometry" />
        </mxCell>
        <mxCell id="tA62HaFHwLlN5aknCPf0-50" value="" style="shape=tableRow;horizontal=0;startSize=0;swimlaneHead=0;swimlaneBody=0;strokeColor=inherit;top=0;left=0;bottom=0;right=0;collapsible=0;dropTarget=0;fillColor=none;points=[[0,0.5],[1,0.5]];portConstraint=eastwest;" vertex="1" parent="tA62HaFHwLlN5aknCPf0-49">
          <mxGeometry width="480" height="18" as="geometry" />
        </mxCell>
        <mxCell id="tA62HaFHwLlN5aknCPf0-51" value="1" style="shape=partialRectangle;html=1;whiteSpace=wrap;connectable=0;strokeColor=inherit;overflow=hidden;fillColor=none;top=0;left=0;bottom=0;right=0;pointerEvents=1;" vertex="1" parent="tA62HaFHwLlN5aknCPf0-50">
          <mxGeometry width="120" height="18" as="geometry">
            <mxRectangle width="120" height="18" as="alternateBounds" />
          </mxGeometry>
        </mxCell>
        <mxCell id="tA62HaFHwLlN5aknCPf0-52" value="1" style="shape=partialRectangle;html=1;whiteSpace=wrap;connectable=0;strokeColor=inherit;overflow=hidden;fillColor=none;top=0;left=0;bottom=0;right=0;pointerEvents=1;" vertex="1" parent="tA62HaFHwLlN5aknCPf0-50">
          <mxGeometry x="120" width="120" height="18" as="geometry">
            <mxRectangle width="120" height="18" as="alternateBounds" />
          </mxGeometry>
        </mxCell>
        <mxCell id="tA62HaFHwLlN5aknCPf0-53" value="1" style="shape=partialRectangle;html=1;whiteSpace=wrap;connectable=0;strokeColor=inherit;overflow=hidden;fillColor=none;top=0;left=0;bottom=0;right=0;pointerEvents=1;" vertex="1" parent="tA62HaFHwLlN5aknCPf0-50">
          <mxGeometry x="240" width="120" height="18" as="geometry">
            <mxRectangle width="120" height="18" as="alternateBounds" />
          </mxGeometry>
        </mxCell>
        <mxCell id="tA62HaFHwLlN5aknCPf0-54" value="0" style="shape=partialRectangle;html=1;whiteSpace=wrap;connectable=0;strokeColor=inherit;overflow=hidden;fillColor=none;top=0;left=0;bottom=0;right=0;pointerEvents=1;" vertex="1" parent="tA62HaFHwLlN5aknCPf0-50">
          <mxGeometry x="360" width="120" height="18" as="geometry">
            <mxRectangle width="120" height="18" as="alternateBounds" />
          </mxGeometry>
        </mxCell>
        <mxCell id="tA62HaFHwLlN5aknCPf0-55" value="" style="shape=tableRow;horizontal=0;startSize=0;swimlaneHead=0;swimlaneBody=0;strokeColor=inherit;top=0;left=0;bottom=0;right=0;collapsible=0;dropTarget=0;fillColor=none;points=[[0,0.5],[1,0.5]];portConstraint=eastwest;" vertex="1" parent="tA62HaFHwLlN5aknCPf0-49">
          <mxGeometry y="18" width="480" height="16" as="geometry" />
        </mxCell>
        <mxCell id="tA62HaFHwLlN5aknCPf0-56" value="1" style="shape=partialRectangle;html=1;whiteSpace=wrap;connectable=0;strokeColor=inherit;overflow=hidden;fillColor=none;top=0;left=0;bottom=0;right=0;pointerEvents=1;" vertex="1" parent="tA62HaFHwLlN5aknCPf0-55">
          <mxGeometry width="120" height="16" as="geometry">
            <mxRectangle width="120" height="16" as="alternateBounds" />
          </mxGeometry>
        </mxCell>
        <mxCell id="tA62HaFHwLlN5aknCPf0-57" value="0" style="shape=partialRectangle;html=1;whiteSpace=wrap;connectable=0;strokeColor=inherit;overflow=hidden;fillColor=none;top=0;left=0;bottom=0;right=0;pointerEvents=1;" vertex="1" parent="tA62HaFHwLlN5aknCPf0-55">
          <mxGeometry x="120" width="120" height="16" as="geometry">
            <mxRectangle width="120" height="16" as="alternateBounds" />
          </mxGeometry>
        </mxCell>
        <mxCell id="tA62HaFHwLlN5aknCPf0-58" value="1" style="shape=partialRectangle;html=1;whiteSpace=wrap;connectable=0;strokeColor=inherit;overflow=hidden;fillColor=none;top=0;left=0;bottom=0;right=0;pointerEvents=1;" vertex="1" parent="tA62HaFHwLlN5aknCPf0-55">
          <mxGeometry x="240" width="120" height="16" as="geometry">
            <mxRectangle width="120" height="16" as="alternateBounds" />
          </mxGeometry>
        </mxCell>
        <mxCell id="tA62HaFHwLlN5aknCPf0-59" value="1" style="shape=partialRectangle;html=1;whiteSpace=wrap;connectable=0;strokeColor=inherit;overflow=hidden;fillColor=none;top=0;left=0;bottom=0;right=0;pointerEvents=1;" vertex="1" parent="tA62HaFHwLlN5aknCPf0-55">
          <mxGeometry x="360" width="120" height="16" as="geometry">
            <mxRectangle width="120" height="16" as="alternateBounds" />
          </mxGeometry>
        </mxCell>
        <mxCell id="tA62HaFHwLlN5aknCPf0-60" value="" style="shape=tableRow;horizontal=0;startSize=0;swimlaneHead=0;swimlaneBody=0;strokeColor=inherit;top=0;left=0;bottom=0;right=0;collapsible=0;dropTarget=0;fillColor=none;points=[[0,0.5],[1,0.5]];portConstraint=eastwest;" vertex="1" parent="tA62HaFHwLlN5aknCPf0-49">
          <mxGeometry y="34" width="480" height="16" as="geometry" />
        </mxCell>
        <mxCell id="tA62HaFHwLlN5aknCPf0-61" value="1" style="shape=partialRectangle;html=1;whiteSpace=wrap;connectable=0;strokeColor=inherit;overflow=hidden;fillColor=none;top=0;left=0;bottom=0;right=0;pointerEvents=1;" vertex="1" parent="tA62HaFHwLlN5aknCPf0-60">
          <mxGeometry width="120" height="16" as="geometry">
            <mxRectangle width="120" height="16" as="alternateBounds" />
          </mxGeometry>
        </mxCell>
        <mxCell id="tA62HaFHwLlN5aknCPf0-62" value="1" style="shape=partialRectangle;html=1;whiteSpace=wrap;connectable=0;strokeColor=inherit;overflow=hidden;fillColor=none;top=0;left=0;bottom=0;right=0;pointerEvents=1;" vertex="1" parent="tA62HaFHwLlN5aknCPf0-60">
          <mxGeometry x="120" width="120" height="16" as="geometry">
            <mxRectangle width="120" height="16" as="alternateBounds" />
          </mxGeometry>
        </mxCell>
        <mxCell id="tA62HaFHwLlN5aknCPf0-63" value="0" style="shape=partialRectangle;html=1;whiteSpace=wrap;connectable=0;strokeColor=inherit;overflow=hidden;fillColor=none;top=0;left=0;bottom=0;right=0;pointerEvents=1;" vertex="1" parent="tA62HaFHwLlN5aknCPf0-60">
          <mxGeometry x="240" width="120" height="16" as="geometry">
            <mxRectangle width="120" height="16" as="alternateBounds" />
          </mxGeometry>
        </mxCell>
        <mxCell id="tA62HaFHwLlN5aknCPf0-64" value="1" style="shape=partialRectangle;html=1;whiteSpace=wrap;connectable=0;strokeColor=inherit;overflow=hidden;fillColor=none;top=0;left=0;bottom=0;right=0;pointerEvents=1;" vertex="1" parent="tA62HaFHwLlN5aknCPf0-60">
          <mxGeometry x="360" width="120" height="16" as="geometry">
            <mxRectangle width="120" height="16" as="alternateBounds" />
          </mxGeometry>
        </mxCell>
        <mxCell id="tA62HaFHwLlN5aknCPf0-65" value="Binary=True" style="text;html=1;align=center;verticalAlign=middle;whiteSpace=wrap;rounded=0;" vertex="1" parent="1">
          <mxGeometry x="650" y="330" width="60" height="30" as="geometry" />
        </mxCell>
        <mxCell id="tA62HaFHwLlN5aknCPf0-66" value="Binary=False" style="text;html=1;align=center;verticalAlign=middle;whiteSpace=wrap;rounded=0;" vertex="1" parent="1">
          <mxGeometry x="650" y="260" width="60" height="30" as="geometry" />
        </mxCell>
      </root>
    </mxGraphModel>
  </diagram>
</mxfile>
